<?xml version="1.0" ?><svg viewBox="0 0 64 64" xmlns="http://www.w3.org/2000/svg"><path d="M30.957 22.066c-9.186.4-18.63-.573-20.84 1.048-3.063 2.245-1.68 16.367-1.483 19.61.198 3.245 3.26 3.644 6.124 3.644s34.374.45 37.682.05 3.31-1.746 3.605-4.59.1-15.12-2.173-18.464c-2.27-3.344-13.73-1.697-22.915-1.298zM53.33 43.773c-1.284.898-39.856 1.048-41.238-.2-1.383-1.248-1.235-16.766-.346-18.513.53-1.04 38.522-1.846 40.3-.4 1.777 1.448 2.568 18.214 1.284 19.113zm-43.56-25.4c-.346-.348-4.204-.358-4.79.15-.347.3-.446 4.84-.248 5.44.198.6 1.482.55 1.68.1.197-.45-.396-3.693.147-4.192.542-.498 2.765-.15 3.26-.15.493 0 .296-.997-.05-1.346zm52.844-2.045c-.593-3.593-7.112-2.994-7.112-2.994s-.37-3.368-.37-4.042-9.186 0-9.705.225c-.52.225.222 4.34.222 4.64s-43.942-.263-44.523.748C-1.02 18.648.534 47.99.683 51.282c.148 3.293 3.852 3.443 4.963 3.518 1.11.075 49.93.45 53.783-.075 3.85-.524 4.222-2.096 4.518-4.117.296-2.02-.74-30.688-1.334-34.28zM47.7 10.888c.542-.25 4.938-.498 5.135-.15.198.35.445 2.346.198 2.596s-4.346 1.048-5.235.4c-.165-.122-.642-2.596-.1-2.845zm13.828 37.376s-2.42-3.194-2.815-3.343c-.395-.15-.84 1-.642 1.2.2.2 3.36 3.342 3.36 3.742s-.1 2.245-.347 2.245c-.247 0-3.605-4.192-3.852-4.29-.246-.1-.987.348-.79.648.2.3 3.26 3.743 3.014 3.743-.247 0-1.926 0-2.124-.1s-2.37-3.293-2.667-3.293c-.296 0-.89.05-.84.3.05.248 2.074 2.943 1.926 2.993-.15.05-2.273.05-2.273.05l-2.025-2.096s-.938.2-.938.5 1.235 1.646.938 1.696c-.296.05-41.09.5-43.807.35-2.716-.15-4.247-.6-4.445-2.197-.196-1.597-.69-30.74-.147-33.26.262-1.216 20.965-.523 31.262-.598 10.297-.075 22.422-.574 23.903-.524 1.482.05 2.37.798 2.37 1.198s.05 2.096.05 2.096-2.37-2.196-2.667-2.096c-.295.1-.937.75-.394.998.543.25 3.11 2.695 3.16 3.144.05.45.297 3.144.15 3.044-.15-.1-2.668-2.595-2.816-2.545-.148.05-.642.7-.247.998.395.3 3.408 2.944 3.408 3.243 0 .3.1 3.144-.048 3.044-.148-.1-2.47-2.894-2.914-2.944-.444-.05-.79.848-.395 1.148.395.3 3.013 2.944 3.11 3.194.1.25.05 2.695.05 2.695L58.366 30.8s-.296 1.297-.05 1.447c.248.15 2.717 2.745 2.717 2.745l.05 3.343s-2.372-2.445-2.52-2.345c-.148.1-.445.898-.198 1.248s2.963 2.994 3.013 3.293c.05.3 0 2.995 0 2.995L58.81 40.83s-.494.998-.296 1.347c.198.35 3.062 3.044 3.062 3.393s-.048 2.694-.048 2.694zM19.188 28.8c-.075.263-.186 4.043-.112 4.155.074.112 1.26.487 1.445.262.186-.225.223-4.266 0-4.528-.222-.263-1.26-.144-1.333.11zm0 6.924c-.075.262-.186 4.042-.112 4.154.074.112 1.26.487 1.445.262.186-.225.223-4.266 0-4.528-.222-.262-1.26-.142-1.333.112zm2.906-.112c-.222.262-.185 4.304 0 4.528.185.225 1.37-.15 1.445-.262.073-.112-.038-3.892-.112-4.154-.073-.254-1.112-.374-1.334-.112zm-2.917 5.136c-.26-.075-4-.187-4.112-.112-.11.075-.482 1.273-.26 1.46.223.187 4.224.225 4.483 0 .26-.225.14-1.275-.11-1.348zm8.817-5.596c.11-.075.482-1.272.26-1.46-.223-.187-4.224-.225-4.483 0-.258.225-.14 1.275.112 1.347.26.075 4 .187 4.112.112zm-5.9-6.463c-.222.26-.185 4.303 0 4.527s1.37-.15 1.445-.262c.073-.112-.038-3.892-.112-4.154-.073-.254-1.112-.373-1.334-.11zm6.194 12.058c-.26-.075-4-.187-4.112-.112-.11.075-.482 1.273-.26 1.46.223.187 4.224.225 4.483 0 .26-.225.14-1.275-.112-1.348zm-4.74-12.632c.26.075 4 .187 4.112.112.11-.075.482-1.272.26-1.46-.223-.187-4.224-.225-4.483 0-.258.226-.14 1.276.112 1.348zm12.965 0c.26.075 4 .187 4.11.112.112-.075.483-1.272.26-1.46-.222-.187-4.223-.225-4.482 0-.257.226-.14 1.276.113 1.348zm9.112 0c.26.075 4 .187 4.11.112.112-.075.483-1.272.26-1.46-.222-.187-4.223-.225-4.482 0-.258.226-.14 1.276.112 1.348zm-32.643.573c-.222.26-.185 4.303 0 4.527.185.225 1.37-.15 1.445-.262.074-.112-.037-3.892-.11-4.154-.074-.254-1.113-.373-1.335-.11zm5.9 6.462c.11-.075.482-1.272.26-1.46-.223-.187-4.224-.225-4.483 0-.26.225-.142 1.275.11 1.347.26.075 4 .187 4.112.112zm-5.9.46c-.222.262-.185 4.304 0 4.528.185.225 1.37-.15 1.445-.262.074-.112-.037-3.892-.11-4.154-.074-.254-1.113-.374-1.335-.112zm1.455-7.496c.26.075 4 .187 4.11.112.112-.075.483-1.272.26-1.46-.222-.187-4.223-.225-4.482 0-.258.226-.14 1.276.112 1.348zM28.3 35.724c-.075.262-.186 4.042-.112 4.154.074.112 1.26.487 1.445.262.185-.225.222-4.266 0-4.528-.223-.262-1.262-.142-1.334.112zM41.262 28.8c-.074.263-.185 4.043-.11 4.155.073.112 1.258.487 1.444.262.185-.225.222-4.266 0-4.528s-1.262-.144-1.334.11zm8.807 6.352c.11-.075.482-1.272.26-1.46-.223-.187-4.224-.225-4.483 0-.26.225-.14 1.275.11 1.347.26.075 4.002.187 4.113.112zm-5.9.46c-.222.262-.185 4.304 0 4.528.185.225 1.37-.15 1.445-.262.074-.112-.037-3.892-.11-4.154-.074-.254-1.113-.374-1.335-.112zm0-6.923c-.222.26-.185 4.303 0 4.527.185.225 1.37-.15 1.445-.262.074-.112-.037-3.892-.11-4.154-.074-.254-1.113-.373-1.335-.11zm6.205.11c-.074.263-.185 4.043-.11 4.155.073.112 1.258.487 1.444.262.184-.225.22-4.266 0-4.528-.224-.263-1.263-.144-1.335.11zm-.01 11.948c-.26-.075-4-.187-4.11-.112-.112.075-.483 1.273-.26 1.46.222.187 4.223.225 4.482 0 .258-.225.14-1.275-.112-1.348zm.01-5.024c-.074.262-.185 4.042-.11 4.154.073.112 1.258.487 1.444.262.184-.225.22-4.266 0-4.528-.224-.262-1.263-.142-1.335.112zm-9.417-.572c.11-.075.482-1.272.26-1.46-.223-.187-4.224-.225-4.483 0-.26.225-.14 1.275.11 1.347.26.075 4.002.187 4.113.112zm-9.865-4.266c-.445.45-.556 1.834.37 2.283.926.448 2.593-.15 2.185-1.498-.407-1.347-1.916-1.432-2.555-.786zm3.965 4.726c-.222.262-.185 4.304 0 4.528.185.225 1.37-.15 1.445-.262.074-.112-.037-3.892-.11-4.154-.074-.254-1.113-.374-1.335-.112zm-3.965 1.412c-.445.45-.556 1.834.37 2.283.926.45 2.593-.15 2.185-1.497-.407-1.348-1.916-1.432-2.555-.786zm3.965-8.335c-.222.26-.185 4.303 0 4.527.185.225 1.37-.15 1.445-.262.074-.112-.037-3.892-.11-4.154-.074-.254-1.113-.373-1.335-.11zm6.195 12.058c-.26-.075-4-.187-4.11-.112-.112.075-.483 1.273-.26 1.46.222.187 4.223.225 4.482 0 .258-.225.14-1.275-.112-1.348zM28.3 28.8c-.075.263-.186 4.043-.112 4.155.074.112 1.26.487 1.445.262.185-.225.222-4.266 0-4.528-.223-.263-1.262-.144-1.334.11zm12.963 6.924c-.074.262-.185 4.042-.11 4.154.073.112 1.258.487 1.444.262.185-.225.222-4.266 0-4.528s-1.262-.142-1.334.112z"/></svg>