<?xml version="1.0" encoding="UTF-8" standalone="no"?>
<!DOCTYPE svg PUBLIC "-//W3C//DTD SVG 1.1//EN"
 "http://www.w3.org/Graphics/SVG/1.1/DTD/svg11.dtd">
<!-- Generated by graphviz version 2.26.3 (20100126.1600)
 -->
<!-- Title: G Pages: 1 -->
<svg width="517pt" height="2078pt"
 viewBox="0.00 0.00 517.00 2078.00" xmlns="http://www.w3.org/2000/svg" xmlns:xlink="http://www.w3.org/1999/xlink">
<g id="graph1" class="graph" transform="scale(1 1) rotate(0) translate(4 2074)">
<title>G</title>
<polygon fill="white" stroke="white" points="-4,5 -4,-2074 514,-2074 514,5 -4,5"/>
<g id="graph2" class="cluster"><title>cluster_Aomebo</title>
<polyline fill="none" stroke="gray" points="35,-44 489,-44 "/>
<path fill="none" stroke="gray" d="M489,-44C495,-44 501,-50 501,-56"/>
<polyline fill="none" stroke="gray" points="501,-56 501,-2050 "/>
<path fill="none" stroke="gray" d="M501,-2050C501,-2056 495,-2062 489,-2062"/>
<polyline fill="none" stroke="gray" points="489,-2062 35,-2062 "/>
<path fill="none" stroke="gray" d="M35,-2062C29,-2062 23,-2056 23,-2050"/>
<polyline fill="none" stroke="gray" points="23,-2050 23,-56 "/>
<path fill="none" stroke="gray" d="M23,-56C23,-50 29,-44 35,-44"/>
<text text-anchor="middle" x="262" y="-2048.1" font-family="Times Roman,serif" font-size="11.00" fill="gray">Aomebo</text>
</g>
<g id="graph3" class="cluster"><title>cluster_Aomebo\Associatives</title>
<polyline fill="none" stroke="gray" points="224,-1850 302,-1850 "/>
<path fill="none" stroke="gray" d="M302,-1850C308,-1850 314,-1856 314,-1862"/>
<polyline fill="none" stroke="gray" points="314,-1862 314,-2020 "/>
<path fill="none" stroke="gray" d="M314,-2020C314,-2026 308,-2032 302,-2032"/>
<polyline fill="none" stroke="gray" points="302,-2032 224,-2032 "/>
<path fill="none" stroke="gray" d="M224,-2032C218,-2032 212,-2026 212,-2020"/>
<polyline fill="none" stroke="gray" points="212,-2020 212,-1862 "/>
<path fill="none" stroke="gray" d="M212,-1862C212,-1856 218,-1850 224,-1850"/>
<text text-anchor="middle" x="263" y="-2018.1" font-family="Times Roman,serif" font-size="11.00" fill="gray">Associatives</text>
</g>
<g id="graph4" class="cluster"><title>cluster_Aomebo\Cache</title>
<polyline fill="none" stroke="gray" points="238,-1768 288,-1768 "/>
<path fill="none" stroke="gray" d="M288,-1768C294,-1768 300,-1774 300,-1780"/>
<polyline fill="none" stroke="gray" points="300,-1780 300,-1830 "/>
<path fill="none" stroke="gray" d="M300,-1830C300,-1836 294,-1842 288,-1842"/>
<polyline fill="none" stroke="gray" points="288,-1842 238,-1842 "/>
<path fill="none" stroke="gray" d="M238,-1842C232,-1842 226,-1836 226,-1830"/>
<polyline fill="none" stroke="gray" points="226,-1830 226,-1780 "/>
<path fill="none" stroke="gray" d="M226,-1780C226,-1774 232,-1768 238,-1768"/>
<text text-anchor="middle" x="263" y="-1828.1" font-family="Times Roman,serif" font-size="11.00" fill="gray">Cache</text>
</g>
<g id="graph5" class="cluster"><title>cluster_Aomebo\Configuration</title>
<polyline fill="none" stroke="gray" points="224,-1578 462,-1578 "/>
<path fill="none" stroke="gray" d="M462,-1578C468,-1578 474,-1584 474,-1590"/>
<polyline fill="none" stroke="gray" points="474,-1590 474,-1748 "/>
<path fill="none" stroke="gray" d="M474,-1748C474,-1754 468,-1760 462,-1760"/>
<polyline fill="none" stroke="gray" points="462,-1760 224,-1760 "/>
<path fill="none" stroke="gray" d="M224,-1760C218,-1760 212,-1754 212,-1748"/>
<polyline fill="none" stroke="gray" points="212,-1748 212,-1590 "/>
<path fill="none" stroke="gray" d="M212,-1590C212,-1584 218,-1578 224,-1578"/>
<text text-anchor="middle" x="343" y="-1746.1" font-family="Times Roman,serif" font-size="11.00" fill="gray">Configuration</text>
</g>
<g id="graph6" class="cluster"><title>cluster_Aomebo\Database</title>
<polyline fill="none" stroke="gray" points="216,-1322 481,-1322 "/>
<path fill="none" stroke="gray" d="M481,-1322C487,-1322 493,-1328 493,-1334"/>
<polyline fill="none" stroke="gray" points="493,-1334 493,-1558 "/>
<path fill="none" stroke="gray" d="M493,-1558C493,-1564 487,-1570 481,-1570"/>
<polyline fill="none" stroke="gray" points="481,-1570 216,-1570 "/>
<path fill="none" stroke="gray" d="M216,-1570C210,-1570 204,-1564 204,-1558"/>
<polyline fill="none" stroke="gray" points="204,-1558 204,-1334 "/>
<path fill="none" stroke="gray" d="M204,-1334C204,-1328 210,-1322 216,-1322"/>
<text text-anchor="middle" x="348.5" y="-1556.1" font-family="Times Roman,serif" font-size="11.00" fill="gray">Database</text>
</g>
<g id="graph7" class="cluster"><title>cluster_Aomebo\Database\Adapters</title>
<polyline fill="none" stroke="gray" points="224,-1330 473,-1330 "/>
<path fill="none" stroke="gray" d="M473,-1330C479,-1330 485,-1336 485,-1342"/>
<polyline fill="none" stroke="gray" points="485,-1342 485,-1484 "/>
<path fill="none" stroke="gray" d="M485,-1484C485,-1490 479,-1496 473,-1496"/>
<polyline fill="none" stroke="gray" points="473,-1496 224,-1496 "/>
<path fill="none" stroke="gray" d="M224,-1496C218,-1496 212,-1490 212,-1484"/>
<polyline fill="none" stroke="gray" points="212,-1484 212,-1342 "/>
<path fill="none" stroke="gray" d="M212,-1342C212,-1336 218,-1330 224,-1330"/>
<text text-anchor="middle" x="348.5" y="-1482.1" font-family="Times Roman,serif" font-size="11.00" fill="gray">Adapters</text>
</g>
<g id="graph8" class="cluster"><title>cluster_Aomebo\Database\Adapters\Mysqli</title>
<polyline fill="none" stroke="gray" points="395,-1338 465,-1338 "/>
<path fill="none" stroke="gray" d="M465,-1338C471,-1338 477,-1344 477,-1350"/>
<polyline fill="none" stroke="gray" points="477,-1350 477,-1454 "/>
<path fill="none" stroke="gray" d="M477,-1454C477,-1460 471,-1466 465,-1466"/>
<polyline fill="none" stroke="gray" points="465,-1466 395,-1466 "/>
<path fill="none" stroke="gray" d="M395,-1466C389,-1466 383,-1460 383,-1454"/>
<polyline fill="none" stroke="gray" points="383,-1454 383,-1350 "/>
<path fill="none" stroke="gray" d="M383,-1350C383,-1344 389,-1338 395,-1338"/>
<text text-anchor="middle" x="430" y="-1452.1" font-family="Times Roman,serif" font-size="11.00" fill="gray">Mysqli</text>
</g>
<g id="graph13" class="cluster"><title>cluster_Aomebo\Dispatcher</title>
<polyline fill="none" stroke="gray" points="235,-1186 291,-1186 "/>
<path fill="none" stroke="gray" d="M291,-1186C297,-1186 303,-1192 303,-1198"/>
<polyline fill="none" stroke="gray" points="303,-1198 303,-1302 "/>
<path fill="none" stroke="gray" d="M303,-1302C303,-1308 297,-1314 291,-1314"/>
<polyline fill="none" stroke="gray" points="291,-1314 235,-1314 "/>
<path fill="none" stroke="gray" d="M235,-1314C229,-1314 223,-1308 223,-1302"/>
<polyline fill="none" stroke="gray" points="223,-1302 223,-1198 "/>
<path fill="none" stroke="gray" d="M223,-1198C223,-1192 229,-1186 235,-1186"/>
<text text-anchor="middle" x="263" y="-1300.1" font-family="Times Roman,serif" font-size="11.00" fill="gray">Dispatcher</text>
</g>
<g id="graph14" class="cluster"><title>cluster_Aomebo\Feedback</title>
<polyline fill="none" stroke="gray" points="240,-1104 286,-1104 "/>
<path fill="none" stroke="gray" d="M286,-1104C292,-1104 298,-1110 298,-1116"/>
<polyline fill="none" stroke="gray" points="298,-1116 298,-1166 "/>
<path fill="none" stroke="gray" d="M298,-1166C298,-1172 292,-1178 286,-1178"/>
<polyline fill="none" stroke="gray" points="286,-1178 240,-1178 "/>
<path fill="none" stroke="gray" d="M240,-1178C234,-1178 228,-1172 228,-1166"/>
<polyline fill="none" stroke="gray" points="228,-1166 228,-1116 "/>
<path fill="none" stroke="gray" d="M228,-1116C228,-1110 234,-1104 240,-1104"/>
<text text-anchor="middle" x="263" y="-1164.1" font-family="Times Roman,serif" font-size="11.00" fill="gray">Feedback</text>
</g>
<g id="graph15" class="cluster"><title>cluster_Aomebo\Indexing</title>
<polyline fill="none" stroke="gray" points="238,-1022 288,-1022 "/>
<path fill="none" stroke="gray" d="M288,-1022C294,-1022 300,-1028 300,-1034"/>
<polyline fill="none" stroke="gray" points="300,-1034 300,-1084 "/>
<path fill="none" stroke="gray" d="M300,-1084C300,-1090 294,-1096 288,-1096"/>
<polyline fill="none" stroke="gray" points="288,-1096 238,-1096 "/>
<path fill="none" stroke="gray" d="M238,-1096C232,-1096 226,-1090 226,-1084"/>
<polyline fill="none" stroke="gray" points="226,-1084 226,-1034 "/>
<path fill="none" stroke="gray" d="M226,-1034C226,-1028 232,-1022 238,-1022"/>
<text text-anchor="middle" x="263" y="-1082.1" font-family="Times Roman,serif" font-size="11.00" fill="gray">Indexing</text>
</g>
<g id="graph16" class="cluster"><title>cluster_Aomebo\Interpreter</title>
<polyline fill="none" stroke="gray" points="216,-820 474,-820 "/>
<path fill="none" stroke="gray" d="M474,-820C480,-820 486,-826 486,-832"/>
<polyline fill="none" stroke="gray" points="486,-832 486,-1002 "/>
<path fill="none" stroke="gray" d="M486,-1002C486,-1008 480,-1014 474,-1014"/>
<polyline fill="none" stroke="gray" points="474,-1014 216,-1014 "/>
<path fill="none" stroke="gray" d="M216,-1014C210,-1014 204,-1008 204,-1002"/>
<polyline fill="none" stroke="gray" points="204,-1002 204,-832 "/>
<path fill="none" stroke="gray" d="M204,-832C204,-826 210,-820 216,-820"/>
<text text-anchor="middle" x="345" y="-1000.1" font-family="Times Roman,serif" font-size="11.00" fill="gray">Interpreter</text>
</g>
<g id="graph17" class="cluster"><title>cluster_Aomebo\Interpreter\Adapters</title>
<polyline fill="none" stroke="gray" points="224,-828 466,-828 "/>
<path fill="none" stroke="gray" d="M466,-828C472,-828 478,-834 478,-840"/>
<polyline fill="none" stroke="gray" points="478,-840 478,-928 "/>
<path fill="none" stroke="gray" d="M478,-928C478,-934 472,-940 466,-940"/>
<polyline fill="none" stroke="gray" points="466,-940 224,-940 "/>
<path fill="none" stroke="gray" d="M224,-940C218,-940 212,-934 212,-928"/>
<polyline fill="none" stroke="gray" points="212,-928 212,-840 "/>
<path fill="none" stroke="gray" d="M212,-840C212,-834 218,-828 224,-828"/>
<text text-anchor="middle" x="345" y="-926.1" font-family="Times Roman,serif" font-size="11.00" fill="gray">Adapters</text>
</g>
<g id="graph18" class="cluster"><title>cluster_Aomebo\Interpreter\Adapters\Xml</title>
<polyline fill="none" stroke="gray" points="402,-836 458,-836 "/>
<path fill="none" stroke="gray" d="M458,-836C464,-836 470,-842 470,-848"/>
<polyline fill="none" stroke="gray" points="470,-848 470,-898 "/>
<path fill="none" stroke="gray" d="M470,-898C470,-904 464,-910 458,-910"/>
<polyline fill="none" stroke="gray" points="458,-910 402,-910 "/>
<path fill="none" stroke="gray" d="M402,-910C396,-910 390,-904 390,-898"/>
<polyline fill="none" stroke="gray" points="390,-898 390,-848 "/>
<path fill="none" stroke="gray" d="M390,-848C390,-842 396,-836 402,-836"/>
<text text-anchor="middle" x="430" y="-896.1" font-family="Times Roman,serif" font-size="11.00" fill="gray">Xml</text>
</g>
<g id="graph21" class="cluster"><title>cluster_Aomebo\Models</title>
<polyline fill="none" stroke="gray" points="224,-684 302,-684 "/>
<path fill="none" stroke="gray" d="M302,-684C308,-684 314,-690 314,-696"/>
<polyline fill="none" stroke="gray" points="314,-696 314,-800 "/>
<path fill="none" stroke="gray" d="M314,-800C314,-806 308,-812 302,-812"/>
<polyline fill="none" stroke="gray" points="302,-812 224,-812 "/>
<path fill="none" stroke="gray" d="M224,-812C218,-812 212,-806 212,-800"/>
<polyline fill="none" stroke="gray" points="212,-800 212,-696 "/>
<path fill="none" stroke="gray" d="M212,-696C212,-690 218,-684 224,-684"/>
<text text-anchor="middle" x="263" y="-798.1" font-family="Times Roman,serif" font-size="11.00" fill="gray">Models</text>
</g>
<g id="graph22" class="cluster"><title>cluster_Aomebo\Modules</title>
<polyline fill="none" stroke="gray" points="224,-206 469,-206 "/>
<path fill="none" stroke="gray" d="M469,-206C475,-206 481,-212 481,-218"/>
<polyline fill="none" stroke="gray" points="481,-218 481,-322 "/>
<path fill="none" stroke="gray" d="M481,-322C481,-328 475,-334 469,-334"/>
<polyline fill="none" stroke="gray" points="469,-334 224,-334 "/>
<path fill="none" stroke="gray" d="M224,-334C218,-334 212,-328 212,-322"/>
<polyline fill="none" stroke="gray" points="212,-322 212,-218 "/>
<path fill="none" stroke="gray" d="M212,-218C212,-212 218,-206 224,-206"/>
<text text-anchor="middle" x="346.5" y="-320.1" font-family="Times Roman,serif" font-size="11.00" fill="gray">Modules</text>
</g>
<g id="graph23" class="cluster"><title>cluster_Aomebo\Presenter</title>
<polyline fill="none" stroke="gray" points="238,-590 288,-590 "/>
<path fill="none" stroke="gray" d="M288,-590C294,-590 300,-596 300,-602"/>
<polyline fill="none" stroke="gray" points="300,-602 300,-652 "/>
<path fill="none" stroke="gray" d="M300,-652C300,-658 294,-664 288,-664"/>
<polyline fill="none" stroke="gray" points="288,-664 238,-664 "/>
<path fill="none" stroke="gray" d="M238,-664C232,-664 226,-658 226,-652"/>
<polyline fill="none" stroke="gray" points="226,-652 226,-602 "/>
<path fill="none" stroke="gray" d="M226,-602C226,-596 232,-590 238,-590"/>
<text text-anchor="middle" x="263" y="-650.1" font-family="Times Roman,serif" font-size="11.00" fill="gray">Presenter</text>
</g>
<g id="graph24" class="cluster"><title>cluster_Aomebo\Session</title>
<polyline fill="none" stroke="gray" points="216,-424 310,-424 "/>
<path fill="none" stroke="gray" d="M310,-424C316,-424 322,-430 322,-436"/>
<polyline fill="none" stroke="gray" points="322,-436 322,-570 "/>
<path fill="none" stroke="gray" d="M322,-570C322,-576 316,-582 310,-582"/>
<polyline fill="none" stroke="gray" points="310,-582 216,-582 "/>
<path fill="none" stroke="gray" d="M216,-582C210,-582 204,-576 204,-570"/>
<polyline fill="none" stroke="gray" points="204,-570 204,-436 "/>
<path fill="none" stroke="gray" d="M204,-436C204,-430 210,-424 216,-424"/>
<text text-anchor="middle" x="263" y="-568.1" font-family="Times Roman,serif" font-size="11.00" fill="gray">Session</text>
</g>
<g id="graph25" class="cluster"><title>cluster_Aomebo\Session\Blocks</title>
<polyline fill="none" stroke="gray" points="224,-478 302,-478 "/>
<path fill="none" stroke="gray" d="M302,-478C308,-478 314,-484 314,-490"/>
<polyline fill="none" stroke="gray" points="314,-490 314,-540 "/>
<path fill="none" stroke="gray" d="M314,-540C314,-546 308,-552 302,-552"/>
<polyline fill="none" stroke="gray" points="302,-552 224,-552 "/>
<path fill="none" stroke="gray" d="M224,-552C218,-552 212,-546 212,-540"/>
<polyline fill="none" stroke="gray" points="212,-540 212,-490 "/>
<path fill="none" stroke="gray" d="M212,-490C212,-484 218,-478 224,-478"/>
<text text-anchor="middle" x="263" y="-538.1" font-family="Times Roman,serif" font-size="11.00" fill="gray">Blocks</text>
</g>
<g id="graph27" class="cluster"><title>cluster_Aomebo\System</title>
<polyline fill="none" stroke="gray" points="235,-342 291,-342 "/>
<path fill="none" stroke="gray" d="M291,-342C297,-342 303,-348 303,-354"/>
<polyline fill="none" stroke="gray" points="303,-354 303,-404 "/>
<path fill="none" stroke="gray" d="M303,-404C303,-410 297,-416 291,-416"/>
<polyline fill="none" stroke="gray" points="291,-416 235,-416 "/>
<path fill="none" stroke="gray" d="M235,-416C229,-416 223,-410 223,-404"/>
<polyline fill="none" stroke="gray" points="223,-404 223,-354 "/>
<path fill="none" stroke="gray" d="M223,-354C223,-348 229,-342 235,-342"/>
<text text-anchor="middle" x="263" y="-402.1" font-family="Times Roman,serif" font-size="11.00" fill="gray">System</text>
</g>
<!-- \\Aomebo\\Associatives\\Parser -->
<g id="node3" class="node"><title>\\Aomebo\\Associatives\\Parser</title>
<a xlink:href="Associatives.Parser.html" xlink:title="Parser" target="_parent">
<polygon fill="none" stroke="black" points="291,-2002 235,-2002 235,-1966 291,-1966 291,-2002"/>
<text text-anchor="middle" x="263" y="-1981.1" font-family="Courier,monospace" font-size="11.00">Parser</text>
</a>
</g>
<!-- \\Aomebo\\Base -->
<g id="node58" class="node"><title>\\Aomebo\\Base</title>
<a xlink:href="Base.html" xlink:title="«abstract»&lt;br/&gt;Base" target="_parent">
<polygon fill="none" stroke="black" points="116,-1107 32,-1107 32,-1071 116,-1071 116,-1107"/>
<text text-anchor="start" x="40" y="-1094.43" font-family="Courier,monospace" font-size="11.00">«abstract»</text>
<text text-anchor="start" x="60" y="-1081.23" font-family="Courier,monospace" font-size="11.00">Base</text>
</a>
</g>
<!-- \\Aomebo\\Associatives\\Parser&#45;&gt;\\Aomebo\\Base -->
<g id="edge66" class="edge"><title>\\Aomebo\\Associatives\\Parser&#45;&gt;\\Aomebo\\Base</title>
<path fill="none" stroke="black" d="M234.283,-1977.22C223.175,-1973.16 211.383,-1966.81 204,-1957 100.733,-1819.78 78.5322,-1251.24 74.7014,-1117.34"/>
<polygon fill="none" stroke="black" points="78.1934,-1116.99 74.4205,-1107.09 71.196,-1117.18 78.1934,-1116.99"/>
</g>
<!-- \\Aomebo\\Associatives\\Dependency -->
<g id="node4" class="node"><title>\\Aomebo\\Associatives\\Dependency</title>
<a xlink:href="Associatives.Dependency.html" xlink:title="«abstract»&lt;br/&gt;Dependency" target="_parent">
<polygon fill="none" stroke="black" points="305,-1948 221,-1948 221,-1912 305,-1912 305,-1948"/>
<text text-anchor="start" x="229" y="-1935.43" font-family="Courier,monospace" font-size="11.00">«abstract»</text>
<text text-anchor="start" x="229" y="-1922.23" font-family="Courier,monospace" font-size="11.00">Dependency</text>
</a>
</g>
<!-- \\Aomebo\\Associatives\\Dependency&#45;&gt;\\Aomebo\\Base -->
<g id="edge68" class="edge"><title>\\Aomebo\\Associatives\\Dependency&#45;&gt;\\Aomebo\\Base</title>
<path fill="none" stroke="black" d="M220.284,-1916.73C214.049,-1913.15 208.295,-1908.65 204,-1903 106.801,-1775.14 80.1094,-1245.72 75.0075,-1117.2"/>
<polygon fill="none" stroke="black" points="78.4972,-1116.87 74.6153,-1107.01 71.5024,-1117.13 78.4972,-1116.87"/>
</g>
<!-- \\Aomebo\\Associatives\\Engine -->
<g id="node5" class="node"><title>\\Aomebo\\Associatives\\Engine</title>
<a xlink:href="Associatives.Engine.html" xlink:title="Engine" target="_parent">
<polygon fill="none" stroke="black" points="291,-1894 235,-1894 235,-1858 291,-1858 291,-1894"/>
<text text-anchor="middle" x="263" y="-1873.1" font-family="Courier,monospace" font-size="11.00">Engine</text>
</a>
</g>
<!-- \\Aomebo\\Associatives\\Engine&#45;&gt;\\Aomebo\\Base -->
<g id="edge70" class="edge"><title>\\Aomebo\\Associatives\\Engine&#45;&gt;\\Aomebo\\Base</title>
<path fill="none" stroke="black" d="M234.332,-1867.66C223.231,-1863.02 211.432,-1856.08 204,-1846 115.674,-1726.18 82.5327,-1239.59 75.5009,-1117.1"/>
<polygon fill="none" stroke="black" points="78.9903,-1116.81 74.9347,-1107.02 72.0013,-1117.2 78.9903,-1116.81"/>
</g>
<!-- \\Aomebo\\Cache\\System -->
<g id="node7" class="node"><title>\\Aomebo\\Cache\\System</title>
<a xlink:href="Cache.System.html" xlink:title="System" target="_parent">
<polygon fill="none" stroke="black" points="291,-1812 235,-1812 235,-1776 291,-1776 291,-1812"/>
<text text-anchor="middle" x="263" y="-1791.1" font-family="Courier,monospace" font-size="11.00">System</text>
</a>
</g>
<!-- \\Aomebo\\Cache\\System&#45;&gt;\\Aomebo\\Base -->
<g id="edge28" class="edge"><title>\\Aomebo\\Cache\\System&#45;&gt;\\Aomebo\\Base</title>
<path fill="none" stroke="black" d="M234.432,-1785.58C223.348,-1780.93 211.534,-1774.01 204,-1764 124.642,-1658.59 85.3874,-1231.69 76.163,-1117.31"/>
<polygon fill="none" stroke="black" points="79.6439,-1116.93 75.3638,-1107.24 72.6659,-1117.48 79.6439,-1116.93"/>
</g>
<!-- \\Aomebo\\Configuration\\Internal -->
<g id="node9" class="node"><title>\\Aomebo\\Configuration\\Internal</title>
<a xlink:href="Configuration.Internal.html" xlink:title="Internal" target="_parent">
<polygon fill="none" stroke="black" points="465,-1730 395,-1730 395,-1694 465,-1694 465,-1730"/>
<text text-anchor="middle" x="430" y="-1709.1" font-family="Courier,monospace" font-size="11.00">Internal</text>
</a>
</g>
<!-- \\Aomebo\\Configuration\\Base -->
<g id="node11" class="node"><title>\\Aomebo\\Configuration\\Base</title>
<a xlink:href="Configuration.Base.html" xlink:title="«abstract»&lt;br/&gt;Base" target="_parent">
<polygon fill="none" stroke="black" points="305,-1649 221,-1649 221,-1613 305,-1613 305,-1649"/>
<text text-anchor="start" x="229" y="-1636.43" font-family="Courier,monospace" font-size="11.00">«abstract»</text>
<text text-anchor="start" x="249" y="-1623.23" font-family="Courier,monospace" font-size="11.00">Base</text>
</a>
</g>
<!-- \\Aomebo\\Configuration\\Internal&#45;&gt;\\Aomebo\\Configuration\\Base -->
<g id="edge58" class="edge"><title>\\Aomebo\\Configuration\\Internal&#45;&gt;\\Aomebo\\Configuration\\Base</title>
<path fill="none" stroke="black" d="M394.174,-1694.62C369.398,-1682.61 336.199,-1666.5 309.401,-1653.51"/>
<polygon fill="none" stroke="black" points="310.738,-1650.26 300.213,-1649.05 307.683,-1656.56 310.738,-1650.26"/>
</g>
<!-- \\Aomebo\\Configuration\\External -->
<g id="node10" class="node"><title>\\Aomebo\\Configuration\\External</title>
<a xlink:href="Configuration.External.html" xlink:title="External" target="_parent">
<polygon fill="none" stroke="black" points="465,-1676 395,-1676 395,-1640 465,-1640 465,-1676"/>
<text text-anchor="middle" x="430" y="-1655.1" font-family="Courier,monospace" font-size="11.00">External</text>
</a>
</g>
<!-- \\Aomebo\\Configuration\\External&#45;&gt;\\Aomebo\\Configuration\\Base -->
<g id="edge60" class="edge"><title>\\Aomebo\\Configuration\\External&#45;&gt;\\Aomebo\\Configuration\\Base</title>
<path fill="none" stroke="black" d="M394.174,-1652.21C371.245,-1648.5 341.104,-1643.63 315.496,-1639.49"/>
<polygon fill="none" stroke="black" points="315.996,-1636.02 305.566,-1637.88 314.879,-1642.93 315.996,-1636.02"/>
</g>
<!-- \\Aomebo\\Configuration\\Base&#45;&gt;\\Aomebo\\Base -->
<g id="edge62" class="edge"><title>\\Aomebo\\Configuration\\Base&#45;&gt;\\Aomebo\\Base</title>
<path fill="none" stroke="black" d="M238.675,-1612.8C226.631,-1602.62 212.818,-1588.97 204,-1574 111.891,-1417.61 83.6168,-1194.79 76.2701,-1117.05"/>
<polygon fill="none" stroke="black" points="79.7537,-1116.71 75.3679,-1107.06 72.7821,-1117.34 79.7537,-1116.71"/>
</g>
<!-- \\Aomebo\\Configuration\\Merged -->
<g id="node12" class="node"><title>\\Aomebo\\Configuration\\Merged</title>
<a xlink:href="Configuration.Merged.html" xlink:title="Merged" target="_parent">
<polygon fill="none" stroke="black" points="458,-1622 402,-1622 402,-1586 458,-1586 458,-1622"/>
<text text-anchor="middle" x="430" y="-1601.1" font-family="Courier,monospace" font-size="11.00">Merged</text>
</a>
</g>
<!-- \\Aomebo\\Configuration\\Merged&#45;&gt;\\Aomebo\\Configuration\\Base -->
<g id="edge64" class="edge"><title>\\Aomebo\\Configuration\\Merged&#45;&gt;\\Aomebo\\Configuration\\Base</title>
<path fill="none" stroke="black" d="M401.292,-1608.64C377.87,-1612.43 344.149,-1617.88 315.87,-1622.45"/>
<polygon fill="none" stroke="black" points="315.04,-1619.04 305.727,-1624.09 316.158,-1625.95 315.04,-1619.04"/>
</g>
<!-- \\Aomebo\\Database\\Adapters\\Mysqli\\Adapter -->
<g id="node16" class="node"><title>\\Aomebo\\Database\\Adapters\\Mysqli\\Adapter</title>
<a xlink:href="Database.Adapters.Mysqli.Adapter.html" xlink:title="Adapter" target="_parent">
<polygon fill="none" stroke="black" points="462,-1382 398,-1382 398,-1346 462,-1346 462,-1382"/>
<text text-anchor="middle" x="430" y="-1361.1" font-family="Courier,monospace" font-size="11.00">Adapter</text>
</a>
</g>
<!-- \\Aomebo\\Database\\Adapters\\Base -->
<g id="node18" class="node"><title>\\Aomebo\\Database\\Adapters\\Base</title>
<a xlink:href="Database.Adapters.Base.html" xlink:title="«abstract»&lt;br/&gt;Base" target="_parent">
<polygon fill="none" stroke="black" points="305,-1378 221,-1378 221,-1342 305,-1342 305,-1378"/>
<text text-anchor="start" x="229" y="-1365.43" font-family="Courier,monospace" font-size="11.00">«abstract»</text>
<text text-anchor="start" x="249" y="-1352.23" font-family="Courier,monospace" font-size="11.00">Base</text>
</a>
</g>
<!-- \\Aomebo\\Database\\Adapters\\Mysqli\\Adapter&#45;&gt;\\Aomebo\\Database\\Adapters\\Base -->
<g id="edge36" class="edge"><title>\\Aomebo\\Database\\Adapters\\Mysqli\\Adapter&#45;&gt;\\Aomebo\\Database\\Adapters\\Base</title>
<path fill="none" stroke="black" d="M397.801,-1363.23C374.52,-1362.67 342.553,-1361.91 315.592,-1361.26"/>
<polygon fill="none" stroke="black" points="315.614,-1357.76 305.533,-1361.02 315.446,-1364.76 315.614,-1357.76"/>
</g>
<!-- \\Aomebo\\Database\\Adapters\\Mysqli\\Resultset -->
<g id="node17" class="node"><title>\\Aomebo\\Database\\Adapters\\Mysqli\\Resultset</title>
<a xlink:href="Database.Adapters.Mysqli.Resultset.html" xlink:title="Resultset" target="_parent">
<polygon fill="none" stroke="black" points="468,-1436 392,-1436 392,-1400 468,-1400 468,-1436"/>
<text text-anchor="middle" x="430" y="-1415.1" font-family="Courier,monospace" font-size="11.00">Resultset</text>
</a>
</g>
<!-- \\Aomebo\\Database\\Adapters\\Resultset -->
<g id="node19" class="node"><title>\\Aomebo\\Database\\Adapters\\Resultset</title>
<a xlink:href="Database.Adapters.Resultset.html" xlink:title="«abstract»&lt;br/&gt;Resultset" target="_parent">
<polygon fill="none" stroke="black" points="305,-1434 221,-1434 221,-1398 305,-1398 305,-1434"/>
<text text-anchor="start" x="229" y="-1421.43" font-family="Courier,monospace" font-size="11.00">«abstract»</text>
<text text-anchor="start" x="232.5" y="-1408.23" font-family="Courier,monospace" font-size="11.00">Resultset</text>
</a>
</g>
<!-- \\Aomebo\\Database\\Adapters\\Mysqli\\Resultset&#45;&gt;\\Aomebo\\Database\\Adapters\\Resultset -->
<g id="edge38" class="edge"><title>\\Aomebo\\Database\\Adapters\\Mysqli\\Resultset&#45;&gt;\\Aomebo\\Database\\Adapters\\Resultset</title>
<path fill="none" stroke="black" d="M391.267,-1417.54C368.841,-1417.27 340.297,-1416.93 315.833,-1416.63"/>
<polygon fill="none" stroke="black" points="315.669,-1413.13 305.627,-1416.51 315.585,-1420.13 315.669,-1413.13"/>
</g>
<!-- \\Aomebo\\Database\\Adapters\\Base&#45;&gt;\\Aomebo\\Base -->
<g id="edge40" class="edge"><title>\\Aomebo\\Database\\Adapters\\Base&#45;&gt;\\Aomebo\\Base</title>
<path fill="none" stroke="black" d="M232.45,-1342C222.621,-1335.28 212.172,-1327.05 204,-1318 146.903,-1254.74 104.031,-1162.19 84.9406,-1116.55"/>
<polygon fill="none" stroke="black" points="88.0652,-1114.94 81.0214,-1107.03 81.5924,-1117.61 88.0652,-1114.94"/>
</g>
<!-- \\Aomebo\\Database\\Adapters\\Resultset&#45;&gt;\\Aomebo\\Base -->
<g id="edge42" class="edge"><title>\\Aomebo\\Database\\Adapters\\Resultset&#45;&gt;\\Aomebo\\Base</title>
<path fill="none" stroke="black" d="M220.222,-1399.56C214.294,-1396.03 208.652,-1391.87 204,-1387 127.461,-1306.9 91.8675,-1174.44 79.4268,-1117.01"/>
<polygon fill="none" stroke="black" points="82.8453,-1116.25 77.3687,-1107.18 75.9941,-1117.69 82.8453,-1116.25"/>
</g>
<!-- \\Aomebo\\Database\\Adapter -->
<g id="node21" class="node"><title>\\Aomebo\\Database\\Adapter</title>
<a xlink:href="Database.Adapter.html" xlink:title="Adapter" target="_parent">
<polygon fill="none" stroke="black" points="462,-1540 398,-1540 398,-1504 462,-1504 462,-1540"/>
<text text-anchor="middle" x="430" y="-1519.1" font-family="Courier,monospace" font-size="11.00">Adapter</text>
</a>
</g>
<!-- \\Aomebo\\Database\\Adapter&#45;&gt;\\Aomebo\\Base -->
<g id="edge34" class="edge"><title>\\Aomebo\\Database\\Adapter&#45;&gt;\\Aomebo\\Base</title>
<path fill="none" stroke="black" d="M397.847,-1528.94C349.963,-1537.27 259.602,-1545.03 204,-1500 142.372,-1450.09 93.6857,-1201.13 78.7512,-1116.9"/>
<polygon fill="none" stroke="black" points="82.1945,-1116.27 77.0218,-1107.03 75.2994,-1117.48 82.1945,-1116.27"/>
</g>
<!-- \\Aomebo\\Dispatcher\\Referer -->
<g id="node26" class="node"><title>\\Aomebo\\Dispatcher\\Referer</title>
<a xlink:href="Dispatcher.Referer.html" xlink:title="Referer" target="_parent">
<polygon fill="none" stroke="black" points="295,-1284 231,-1284 231,-1248 295,-1248 295,-1284"/>
<text text-anchor="middle" x="263" y="-1263.1" font-family="Courier,monospace" font-size="11.00">Referer</text>
</a>
</g>
<!-- \\Aomebo\\Dispatcher\\Referer&#45;&gt;\\Aomebo\\Base -->
<g id="edge82" class="edge"><title>\\Aomebo\\Dispatcher\\Referer&#45;&gt;\\Aomebo\\Base</title>
<path fill="none" stroke="black" d="M230.984,-1254.33C221.815,-1250.22 212.114,-1245.08 204,-1239 156.857,-1203.68 114.712,-1148.66 91.9082,-1115.98"/>
<polygon fill="none" stroke="black" points="94.5522,-1113.65 86.0011,-1107.4 88.7849,-1117.62 94.5522,-1113.65"/>
</g>
<!-- \\Aomebo\\Dispatcher\\System -->
<g id="node27" class="node"><title>\\Aomebo\\Dispatcher\\System</title>
<a xlink:href="Dispatcher.System.html" xlink:title="System" target="_parent">
<polygon fill="none" stroke="black" points="291,-1230 235,-1230 235,-1194 291,-1194 291,-1230"/>
<text text-anchor="middle" x="263" y="-1209.1" font-family="Courier,monospace" font-size="11.00">System</text>
</a>
</g>
<!-- \\Aomebo\\Dispatcher\\System&#45;&gt;\\Aomebo\\Base -->
<g id="edge84" class="edge"><title>\\Aomebo\\Dispatcher\\System&#45;&gt;\\Aomebo\\Base</title>
<path fill="none" stroke="black" d="M234.319,-1198.5C224.528,-1193.61 213.626,-1187.84 204,-1182 169.05,-1160.78 131.267,-1133.18 105.489,-1113.57"/>
<polygon fill="none" stroke="black" points="107.297,-1110.55 97.2291,-1107.25 103.043,-1116.11 107.297,-1110.55"/>
</g>
<!-- \\Aomebo\\Feedback\\Debug -->
<g id="node29" class="node"><title>\\Aomebo\\Feedback\\Debug</title>
<a xlink:href="Feedback.Debug.html" xlink:title="Debug" target="_parent">
<polygon fill="none" stroke="black" points="290,-1148 236,-1148 236,-1112 290,-1112 290,-1148"/>
<text text-anchor="middle" x="263" y="-1127.1" font-family="Courier,monospace" font-size="11.00">Debug</text>
</a>
</g>
<!-- \\Aomebo\\Feedback\\Debug&#45;&gt;\\Aomebo\\Base -->
<g id="edge30" class="edge"><title>\\Aomebo\\Feedback\\Debug&#45;&gt;\\Aomebo\\Base</title>
<path fill="none" stroke="black" d="M235.921,-1124.13C207.586,-1117.98 162.378,-1108.17 126.923,-1100.48"/>
<polygon fill="none" stroke="black" points="127.249,-1096.97 116.734,-1098.27 125.765,-1103.81 127.249,-1096.97"/>
</g>
<!-- \\Aomebo\\Indexing\\Engine -->
<g id="node31" class="node"><title>\\Aomebo\\Indexing\\Engine</title>
<a xlink:href="Indexing.Engine.html" xlink:title="Engine" target="_parent">
<polygon fill="none" stroke="black" points="291,-1066 235,-1066 235,-1030 291,-1030 291,-1066"/>
<text text-anchor="middle" x="263" y="-1045.1" font-family="Courier,monospace" font-size="11.00">Engine</text>
</a>
</g>
<!-- \\Aomebo\\Indexing\\Engine&#45;&gt;\\Aomebo\\Base -->
<g id="edge50" class="edge"><title>\\Aomebo\\Indexing\\Engine&#45;&gt;\\Aomebo\\Base</title>
<path fill="none" stroke="black" d="M234.295,-1054.23C205.817,-1060.4 161.512,-1070.02 126.692,-1077.57"/>
<polygon fill="none" stroke="black" points="125.713,-1074.2 116.682,-1079.74 127.197,-1081.04 125.713,-1074.2"/>
</g>
<!-- \\Aomebo\\Interpreter\\Adapters\\Xml\\Adapter -->
<g id="node35" class="node"><title>\\Aomebo\\Interpreter\\Adapters\\Xml\\Adapter</title>
<a xlink:href="Interpreter.Adapters.Xml.Adapter.html" xlink:title="Adapter" target="_parent">
<polygon fill="none" stroke="black" points="462,-880 398,-880 398,-844 462,-844 462,-880"/>
<text text-anchor="middle" x="430" y="-859.1" font-family="Courier,monospace" font-size="11.00">Adapter</text>
</a>
</g>
<!-- \\Aomebo\\Interpreter\\Adapters\\Base -->
<g id="node36" class="node"><title>\\Aomebo\\Interpreter\\Adapters\\Base</title>
<a xlink:href="Interpreter.Adapters.Base.html" xlink:title="«abstract»&lt;br/&gt;Base" target="_parent">
<polygon fill="none" stroke="black" points="305,-895 221,-895 221,-859 305,-859 305,-895"/>
<text text-anchor="start" x="229" y="-882.433" font-family="Courier,monospace" font-size="11.00">«abstract»</text>
<text text-anchor="start" x="249" y="-869.233" font-family="Courier,monospace" font-size="11.00">Base</text>
</a>
</g>
<!-- \\Aomebo\\Interpreter\\Adapters\\Xml\\Adapter&#45;&gt;\\Aomebo\\Interpreter\\Adapters\\Base -->
<g id="edge54" class="edge"><title>\\Aomebo\\Interpreter\\Adapters\\Xml\\Adapter&#45;&gt;\\Aomebo\\Interpreter\\Adapters\\Base</title>
<path fill="none" stroke="black" d="M397.801,-864.892C374.52,-866.983 342.553,-869.854 315.592,-872.276"/>
<polygon fill="none" stroke="black" points="315.179,-868.799 305.533,-873.18 315.806,-875.771 315.179,-868.799"/>
</g>
<!-- \\Aomebo\\Interpreter\\Adapters\\Base&#45;&gt;\\Aomebo\\Base -->
<g id="edge56" class="edge"><title>\\Aomebo\\Interpreter\\Adapters\\Base&#45;&gt;\\Aomebo\\Base</title>
<path fill="none" stroke="black" d="M220.215,-887.643C214.217,-890.566 208.556,-894.281 204,-899 149.334,-955.623 204.558,-1012.27 148,-1067 141.908,-1072.9 134.309,-1077.22 126.32,-1080.39"/>
<polygon fill="none" stroke="black" points="125.176,-1077.08 116.829,-1083.61 127.423,-1083.71 125.176,-1077.08"/>
</g>
<!-- \\Aomebo\\Interpreter\\Engine -->
<g id="node38" class="node"><title>\\Aomebo\\Interpreter\\Engine</title>
<a xlink:href="Interpreter.Engine.html" xlink:title="Engine" target="_parent">
<polygon fill="none" stroke="black" points="458,-984 402,-984 402,-948 458,-948 458,-984"/>
<text text-anchor="middle" x="430" y="-963.1" font-family="Courier,monospace" font-size="11.00">Engine</text>
</a>
</g>
<!-- \\Aomebo\\Interpreter\\Engine&#45;&gt;\\Aomebo\\Base -->
<g id="edge52" class="edge"><title>\\Aomebo\\Interpreter\\Engine&#45;&gt;\\Aomebo\\Base</title>
<path fill="none" stroke="black" d="M401.354,-968.094C356.902,-972.305 269.606,-984.469 204,-1018 174.552,-1033.05 176.961,-1051.03 148,-1067 141.308,-1070.69 133.926,-1073.83 126.494,-1076.48"/>
<polygon fill="none" stroke="black" points="125.154,-1073.23 116.748,-1079.68 127.341,-1079.88 125.154,-1073.23"/>
</g>
<!-- \\Aomebo\\Models\\View -->
<g id="node41" class="node"><title>\\Aomebo\\Models\\View</title>
<a xlink:href="Models.View.html" xlink:title="View" target="_parent">
<polygon fill="none" stroke="black" points="290,-782 236,-782 236,-746 290,-746 290,-782"/>
<text text-anchor="middle" x="263" y="-761.1" font-family="Courier,monospace" font-size="11.00">View</text>
</a>
</g>
<!-- \\Aomebo\\Models\\View&#45;&gt;\\Aomebo\\Base -->
<g id="edge78" class="edge"><title>\\Aomebo\\Models\\View&#45;&gt;\\Aomebo\\Base</title>
<path fill="none" stroke="black" d="M239.658,-782.218C227.284,-793.074 212.853,-807.861 204,-824 150.695,-921.17 223.883,-986.221 148,-1067 142.064,-1073.32 134.403,-1077.85 126.267,-1081.09"/>
<polygon fill="none" stroke="black" points="124.947,-1077.84 116.574,-1084.34 127.168,-1084.48 124.947,-1077.84"/>
</g>
<!-- \\Aomebo\\Models\\Base -->
<g id="node42" class="node"><title>\\Aomebo\\Models\\Base</title>
<a xlink:href="Models.Base.html" xlink:title="«abstract»&lt;br/&gt;Base" target="_parent">
<polygon fill="none" stroke="black" points="305,-728 221,-728 221,-692 305,-692 305,-728"/>
<text text-anchor="start" x="229" y="-715.433" font-family="Courier,monospace" font-size="11.00">«abstract»</text>
<text text-anchor="start" x="249" y="-702.233" font-family="Courier,monospace" font-size="11.00">Base</text>
</a>
</g>
<!-- \\Aomebo\\Models\\Base&#45;&gt;\\Aomebo\\Base -->
<g id="edge80" class="edge"><title>\\Aomebo\\Models\\Base&#45;&gt;\\Aomebo\\Base</title>
<path fill="none" stroke="black" d="M220.331,-723.302C214.09,-726.878 208.322,-731.371 204,-737 113.396,-854.99 246.646,-955.647 148,-1067 142.124,-1073.63 134.347,-1078.31 126.043,-1081.59"/>
<polygon fill="none" stroke="black" points="124.913,-1078.28 116.517,-1084.74 127.11,-1084.93 124.913,-1078.28"/>
</g>
<!-- \\Aomebo\\Modules\\View -->
<g id="node44" class="node"><title>\\Aomebo\\Modules\\View</title>
<a xlink:href="Modules.View.html" xlink:title="View" target="_parent">
<polygon fill="none" stroke="black" points="457,-304 403,-304 403,-268 457,-268 457,-304"/>
<text text-anchor="middle" x="430" y="-283.1" font-family="Courier,monospace" font-size="11.00">View</text>
</a>
</g>
<!-- \\Aomebo\\Modules\\View&#45;&gt;\\Aomebo\\Base -->
<g id="edge72" class="edge"><title>\\Aomebo\\Modules\\View&#45;&gt;\\Aomebo\\Base</title>
<path fill="none" stroke="black" d="M427.573,-304.116C417.919,-373.297 379.934,-619.37 322,-668 301.812,-684.946 223.028,-661.761 204,-680 78.5359,-800.259 261.647,-935.517 148,-1067 142.205,-1073.7 134.467,-1078.41 126.177,-1081.71"/>
<polygon fill="none" stroke="black" points="125.049,-1078.4 116.656,-1084.86 127.25,-1085.04 125.049,-1078.4"/>
</g>
<!-- \\Aomebo\\Modules\\Bridge -->
<g id="node45" class="node"><title>\\Aomebo\\Modules\\Bridge</title>
<a xlink:href="Modules.Bridge.html" xlink:title="«abstract»&lt;br/&gt;Bridge" target="_parent">
<polygon fill="none" stroke="black" points="472,-250 388,-250 388,-214 472,-214 472,-250"/>
<text text-anchor="start" x="396" y="-237.433" font-family="Courier,monospace" font-size="11.00">«abstract»</text>
<text text-anchor="start" x="409.5" y="-224.233" font-family="Courier,monospace" font-size="11.00">Bridge</text>
</a>
</g>
<!-- \\Aomebo\\Modules\\Base -->
<g id="node46" class="node"><title>\\Aomebo\\Modules\\Base</title>
<a xlink:href="Modules.Base.html" xlink:title="«abstract»&lt;br/&gt;Base" target="_parent">
<polygon fill="none" stroke="black" points="305,-250 221,-250 221,-214 305,-214 305,-250"/>
<text text-anchor="start" x="229" y="-237.433" font-family="Courier,monospace" font-size="11.00">«abstract»</text>
<text text-anchor="start" x="249" y="-224.233" font-family="Courier,monospace" font-size="11.00">Base</text>
</a>
</g>
<!-- \\Aomebo\\Modules\\Bridge&#45;&gt;\\Aomebo\\Modules\\Base -->
<g id="edge74" class="edge"><title>\\Aomebo\\Modules\\Bridge&#45;&gt;\\Aomebo\\Modules\\Base</title>
<path fill="none" stroke="black" d="M387.427,-232C365.722,-232 339.116,-232 316.085,-232"/>
<polygon fill="none" stroke="black" points="315.786,-228.5 305.786,-232 315.786,-235.5 315.786,-228.5"/>
</g>
<!-- \\Aomebo\\Modules\\Base&#45;&gt;\\Aomebo\\Base -->
<g id="edge76" class="edge"><title>\\Aomebo\\Modules\\Base&#45;&gt;\\Aomebo\\Base</title>
<path fill="none" stroke="black" d="M249.731,-250.045C235.629,-270.307 214.013,-304.723 204,-338 157.184,-493.586 250.069,-940.585 148,-1067 142.372,-1073.97 134.638,-1078.8 126.281,-1082.13"/>
<polygon fill="none" stroke="black" points="125.069,-1078.85 116.661,-1085.29 127.254,-1085.5 125.069,-1078.85"/>
</g>
<!-- \\Serializable -->
<g id="node90" class="node"><title>\\Serializable</title>
<ellipse fill="none" stroke="black" cx="74" cy="-18" rx="74.2462" ry="18.3848"/>
<text text-anchor="middle" x="74" y="-14.4" font-family="Times Roman,serif" font-size="14.00" fill="gray">\\Serializable</text>
</g>
<!-- \\Aomebo\\Modules\\Base&#45;&gt;\\Serializable -->
<g id="edge86" class="edge"><title>\\Aomebo\\Modules\\Base&#45;&gt;\\Serializable</title>
<path fill="none" stroke="black" stroke-dasharray="1,5" d="M257.226,-213.875C244.152,-175.781 208.62,-87.0535 148,-40 145.353,-37.9454 142.517,-36.0824 139.555,-34.393"/>
<polygon fill="none" stroke="black" points="140.864,-31.1355 130.35,-29.8279 137.754,-37.4066 140.864,-31.1355"/>
</g>
<!-- \\Aomebo\\Presenter\\Engine -->
<g id="node48" class="node"><title>\\Aomebo\\Presenter\\Engine</title>
<a xlink:href="Presenter.Engine.html" xlink:title="Engine" target="_parent">
<polygon fill="none" stroke="black" points="291,-634 235,-634 235,-598 291,-598 291,-634"/>
<text text-anchor="middle" x="263" y="-613.1" font-family="Courier,monospace" font-size="11.00">Engine</text>
</a>
</g>
<!-- \\Aomebo\\Presenter\\Engine&#45;&gt;\\Aomebo\\Base -->
<g id="edge48" class="edge"><title>\\Aomebo\\Presenter\\Engine&#45;&gt;\\Aomebo\\Base</title>
<path fill="none" stroke="black" d="M234.316,-620.206C223.214,-623.301 211.417,-628.674 204,-638 84.3166,-788.496 272.726,-920.655 148,-1067 142.252,-1073.74 134.537,-1078.47 126.254,-1081.78"/>
<polygon fill="none" stroke="black" points="125.127,-1078.46 116.736,-1084.93 127.33,-1085.11 125.127,-1078.46"/>
</g>
<!-- \\Aomebo\\Session\\Blocks\\Base -->
<g id="node51" class="node"><title>\\Aomebo\\Session\\Blocks\\Base</title>
<a xlink:href="Session.Blocks.Base.html" xlink:title="«abstract»&lt;br/&gt;Base" target="_parent">
<polygon fill="none" stroke="black" points="305,-522 221,-522 221,-486 305,-486 305,-522"/>
<text text-anchor="start" x="229" y="-509.433" font-family="Courier,monospace" font-size="11.00">«abstract»</text>
<text text-anchor="start" x="249" y="-496.233" font-family="Courier,monospace" font-size="11.00">Base</text>
</a>
</g>
<!-- \\Aomebo\\Session\\Blocks\\Base&#45;&gt;\\Aomebo\\Base -->
<g id="edge44" class="edge"><title>\\Aomebo\\Session\\Blocks\\Base&#45;&gt;\\Aomebo\\Base</title>
<path fill="none" stroke="black" d="M245.645,-522.231C231.882,-537.854 213.445,-561.635 204,-586 165.106,-686.336 217.231,-984.616 148,-1067 142.299,-1073.78 134.607,-1078.53 126.332,-1081.84"/>
<polygon fill="none" stroke="black" points="125.205,-1078.53 116.817,-1085 127.411,-1085.17 125.205,-1078.53"/>
</g>
<!-- \\Aomebo\\Session\\Handler -->
<g id="node52" class="node"><title>\\Aomebo\\Session\\Handler</title>
<a xlink:href="Session.Handler.html" xlink:title="Handler" target="_parent">
<polygon fill="none" stroke="black" points="295,-468 231,-468 231,-432 295,-432 295,-468"/>
<text text-anchor="middle" x="263" y="-447.1" font-family="Courier,monospace" font-size="11.00">Handler</text>
</a>
</g>
<!-- \\Aomebo\\Session\\Handler&#45;&gt;\\Aomebo\\Base -->
<g id="edge46" class="edge"><title>\\Aomebo\\Session\\Handler&#45;&gt;\\Aomebo\\Base</title>
<path fill="none" stroke="black" d="M230.708,-456.203C220.627,-459.748 210.466,-465.303 204,-474 125.026,-580.223 232.049,-964.745 148,-1067 142.311,-1073.92 134.548,-1078.73 126.182,-1082.05"/>
<polygon fill="none" stroke="black" points="124.968,-1078.77 116.558,-1085.21 127.151,-1085.42 124.968,-1078.77"/>
</g>
<!-- \\Aomebo\\System\\Cleanup -->
<g id="node55" class="node"><title>\\Aomebo\\System\\Cleanup</title>
<a xlink:href="System.Cleanup.html" xlink:title="Cleanup" target="_parent">
<polygon fill="none" stroke="black" points="295,-386 231,-386 231,-350 295,-350 295,-386"/>
<text text-anchor="middle" x="263" y="-365.1" font-family="Courier,monospace" font-size="11.00">Cleanup</text>
</a>
</g>
<!-- \\Aomebo\\System\\Cleanup&#45;&gt;\\Aomebo\\Base -->
<g id="edge32" class="edge"><title>\\Aomebo\\System\\Cleanup&#45;&gt;\\Aomebo\\Base</title>
<path fill="none" stroke="black" d="M234.229,-386.127C222.827,-394.897 210.828,-406.47 204,-420 138.982,-548.839 239.202,-955.155 148,-1067 142.338,-1073.94 134.588,-1078.76 126.226,-1082.09"/>
<polygon fill="none" stroke="black" points="125.013,-1078.8 116.604,-1085.25 127.196,-1085.45 125.013,-1078.8"/>
</g>
<!-- \\Aomebo\\Configuration -->
<g id="node56" class="node"><title>\\Aomebo\\Configuration</title>
<a xlink:href="Configuration.html" xlink:title="Configuration" target="_parent">
<polygon fill="none" stroke="black" points="482,-196 378,-196 378,-160 482,-160 482,-196"/>
<text text-anchor="middle" x="430" y="-175.1" font-family="Courier,monospace" font-size="11.00">Configuration</text>
</a>
</g>
<!-- \\Aomebo\\Application -->
<g id="node57" class="node"><title>\\Aomebo\\Application</title>
<a xlink:href="Application.html" xlink:title="Application" target="_parent">
<polygon fill="none" stroke="black" points="475,-142 385,-142 385,-106 475,-106 475,-142"/>
<text text-anchor="middle" x="430" y="-121.1" font-family="Courier,monospace" font-size="11.00">Application</text>
</a>
</g>
<!-- \\Aomebo\\Site -->
<g id="node59" class="node"><title>\\Aomebo\\Site</title>
<a xlink:href="Site.html" xlink:title="Site" target="_parent">
<polygon fill="none" stroke="black" points="457,-88 403,-88 403,-52 457,-52 457,-88"/>
<text text-anchor="middle" x="430" y="-67.1" font-family="Courier,monospace" font-size="11.00">Site</text>
</a>
</g>
</g>
</svg>
